<svg width="311" height="150" viewBox="0 0 311 150" fill="none" xmlns="http://www.w3.org/2000/svg">
<path d="M265.305 83.5518V119.703M265.305 83.5518L259.048 92.5897L222.896 80.0757L229.153 71.7331L222.896 62.6952L246.534 54.3526M265.305 83.5518L271.562 92.5897L307.713 80.0757L302.151 71.7331L307.713 62.6952L284.076 54.3526M265.305 83.5518L229.849 71.7331L254.876 62M265.305 83.5518L300.761 71.7331L276.428 62M265.305 119.703L228.458 107.189V82.8566M265.305 119.703L302.151 107.189V82.8566" stroke="white" stroke-width="2.78088" stroke-linejoin="round"/>
<path d="M230.544 37.667V47.4001M224.982 42.5335H236.106M300.066 41.8383V52.2666M294.504 46.7049H305.627M265.305 39.0575C268.086 36.0449 275.316 31.4101 281.99 36.9718C286.975 41.1257 286.84 46.5723 285.584 50.4152C284.844 52.6805 283.226 54.507 281.541 56.1922L265.305 72.428L249.56 56.6828C247.55 54.6732 245.64 52.4632 244.874 49.7265C243.767 45.7735 243.844 40.5539 248.62 36.9718C255.294 31.9662 262.524 36.2766 265.305 39.0575Z" stroke="white" stroke-width="2.78088" stroke-linecap="round" stroke-linejoin="round"/>
<path d="M93.5857 61.2467C123.143 64.4 171.086 76.2217 142.46 90.3542C102.662 110.002 123.217 58.5801 142.46 56.8805C183.653 53.2422 189.239 88.1712 185.05 109.274C180.86 130.377 222.752 148.569 248.586 126.739" stroke="white" stroke-width="2.78088" stroke-linecap="round" stroke-dasharray="5.56 5.56"/>
<path d="M4.59753 96.94V48.2746C4.59753 45.9709 6.4651 44.1033 8.76885 44.1033H80.3764C82.6802 44.1033 84.5477 45.9709 84.5477 48.2747V96.94C84.5477 99.2437 82.6802 101.111 80.3764 101.111H8.76885C6.4651 101.111 4.59753 99.2437 4.59753 96.94Z" stroke="white" stroke-width="2.78088"/>
<path d="M72.0338 48.9699H10.1593V95.5496H12.245" stroke="white" stroke-width="2.78088" stroke-linecap="round" stroke-linejoin="round"/>
<path d="M76.2052 48.9699H80.3765V95.5496H17.1116" stroke="white" stroke-width="2.78088" stroke-linecap="round" stroke-linejoin="round"/>
<path d="M26.1494 55.9221L30.3207 59.3982M30.3207 59.3982L38.3193 60.1422M30.3207 59.3982L33.1016 68.436M35.8825 77.4739L33.7968 82.3404H58.1295M35.8825 77.4739L41.2704 76.7786M35.8825 77.4739L33.1016 68.436M38.3193 60.1422L41.2704 76.7786M38.3193 60.1422L46.3108 60.8856M41.2704 76.7786L46.3108 76.1283M46.3108 60.8856V76.1283M46.3108 60.8856L53.263 61.5323M46.3108 76.1283L51.8725 75.4106M51.8725 75.4106L57.4343 74.693L60.2152 62.179L53.263 61.5323M51.8725 75.4106L53.263 61.5323M33.1016 68.436H58.5852" stroke="white" stroke-width="2.78088" stroke-linecap="round" stroke-linejoin="round"/>
<path d="M41.4442 101.807C41.6759 103.197 42.6956 106.673 44.9203 106.673C47.0059 106.673 48.6281 103.197 49.0916 101.807L34.492 101.111L33.1015 111.54M55.3486 101.111L56.739 111.54M27.5398 111.54H62.0969" stroke="white" stroke-width="2.78088" stroke-linecap="round" stroke-linejoin="round"/>
<circle cx="37.2729" cy="85.1213" r="2.08566" stroke="white" stroke-width="2.78088"/>
<circle cx="55.3486" cy="85.1213" r="2.08566" stroke="white" stroke-width="2.78088"/>
</svg>
