<svg width="75" height="85" viewBox="0 0 75 85" fill="none" xmlns="http://www.w3.org/2000/svg">
<g filter="url(#filter0_d_1_134)">
<path d="M47.7071 20.2929C47.3166 19.9024 46.6834 19.9024 46.2929 20.2929L39.9289 26.6569C39.5384 27.0474 39.5384 27.6805 39.9289 28.0711C40.3195 28.4616 40.9526 28.4616 41.3431 28.0711L47 22.4142L52.6569 28.0711C53.0474 28.4616 53.6805 28.4616 54.0711 28.0711C54.4616 27.6805 54.4616 27.0474 54.0711 26.6569L47.7071 20.2929ZM48 37V21H46V37H48ZM20 65C35.464 65 48 52.464 48 37H46C46 51.3594 34.3594 63 20 63V65Z" fill="white"/>
</g>
<defs>
<filter id="filter0_d_1_134" x="0" y="0" width="74.364" height="85" filterUnits="userSpaceOnUse" color-interpolation-filters="sRGB">
<feFlood flood-opacity="0" result="BackgroundImageFix"/>
<feColorMatrix in="SourceAlpha" type="matrix" values="0 0 0 0 0 0 0 0 0 0 0 0 0 0 0 0 0 0 127 0" result="hardAlpha"/>
<feOffset/>
<feGaussianBlur stdDeviation="10"/>
<feComposite in2="hardAlpha" operator="out"/>
<feColorMatrix type="matrix" values="0 0 0 0 1 0 0 0 0 1 0 0 0 0 1 0 0 0 1 0"/>
<feBlend mode="normal" in2="BackgroundImageFix" result="effect1_dropShadow_1_134"/>
<feBlend mode="normal" in="SourceGraphic" in2="effect1_dropShadow_1_134" result="shape"/>
</filter>
</defs>
</svg>
