<svg width="110" height="141" viewBox="0 0 110 141" fill="none" xmlns="http://www.w3.org/2000/svg">
<g filter="url(#filter0_d_1_522)">
<path d="M82.7071 20.2929C82.3166 19.9024 81.6834 19.9024 81.2929 20.2929L74.9289 26.6569C74.5384 27.0474 74.5384 27.6805 74.9289 28.0711C75.3195 28.4616 75.9526 28.4616 76.3431 28.0711L82 22.4142L87.6569 28.0711C88.0474 28.4616 88.6805 28.4616 89.0711 28.0711C89.4616 27.6805 89.4616 27.0474 89.0711 26.6569L82.7071 20.2929ZM83 58V21H81V58H83ZM20 121C54.7939 121 83 92.7939 83 58H81C81 91.6894 53.6894 119 20 119V121Z" fill="white"/>
</g>
<defs>
<filter id="filter0_d_1_522" x="0" y="0" width="109.364" height="141" filterUnits="userSpaceOnUse" color-interpolation-filters="sRGB">
<feFlood flood-opacity="0" result="BackgroundImageFix"/>
<feColorMatrix in="SourceAlpha" type="matrix" values="0 0 0 0 0 0 0 0 0 0 0 0 0 0 0 0 0 0 127 0" result="hardAlpha"/>
<feOffset/>
<feGaussianBlur stdDeviation="10"/>
<feComposite in2="hardAlpha" operator="out"/>
<feColorMatrix type="matrix" values="0 0 0 0 1 0 0 0 0 1 0 0 0 0 1 0 0 0 1 0"/>
<feBlend mode="normal" in2="BackgroundImageFix" result="effect1_dropShadow_1_522"/>
<feBlend mode="normal" in="SourceGraphic" in2="effect1_dropShadow_1_522" result="shape"/>
</filter>
</defs>
</svg>
