<svg width="72" height="309" viewBox="0 0 72 309" fill="none" xmlns="http://www.w3.org/2000/svg">
<path d="M0.292891 301.707C-0.0976319 301.316 -0.0976301 300.683 0.292895 300.293L6.65687 293.929C7.0474 293.538 7.68056 293.538 8.07109 293.929C8.46161 294.319 8.46161 294.952 8.07108 295.343L2.41421 301L8.07105 306.657C8.46158 307.047 8.46157 307.68 8.07105 308.071C7.68052 308.461 7.04736 308.461 6.65683 308.071L0.292891 301.707ZM42.9707 301L42.9707 300L42.9707 301ZM70.9707 134.536H69.9707V134.536L70.9707 134.536ZM70 0.999786C70.0001 0.44751 70.4479 -0.00012207 71.0002 0C71.5525 0.00012207 72.0001 0.447937 72 1.00021L70 0.999786ZM1 300L42.9707 300L42.9706 302L0.999997 302L1 300ZM69.9707 273V134.536H71.9707V273H69.9707ZM69.9707 134.536L70 0.999786L72 1.00021L71.9707 134.536L69.9707 134.536ZM42.9707 300C57.8824 300 69.9707 287.912 69.9707 273H71.9707C71.9707 289.016 58.9869 302 42.9706 302L42.9707 300Z" fill="white"/>
</svg>
