<svg width="31" height="163" viewBox="0 0 31 163" fill="none" xmlns="http://www.w3.org/2000/svg">
<path d="M0.292891 155.707C-0.0976322 155.316 -0.0976299 154.683 0.292896 154.293L6.65688 147.929C7.0474 147.538 7.68057 147.538 8.07109 147.929C8.46162 148.319 8.46161 148.953 8.07109 149.343L2.41421 155L8.07105 160.657C8.46157 161.047 8.46157 161.68 8.07104 162.071C7.68052 162.462 7.04735 162.462 6.65683 162.071L0.292891 155.707ZM1.98777 155L1.98778 154L1.98777 155ZM29.9879 69.5484H28.9879V69.5482L29.9879 69.5484ZM29 0.999817C29.0001 0.44754 29.4479 -9.15527e-05 30.0002 0C30.5525 9.15527e-05 31.0001 0.447891 31 1.00018L29 0.999817ZM1 154L1.98778 154L1.98777 156L0.999996 156L1 154ZM28.9879 127V69.5484H30.9879V127H28.9879ZM28.9879 69.5482L29 0.999817L31 1.00018L30.9879 69.5486L28.9879 69.5482ZM1.98778 154C16.8995 154 28.9879 141.912 28.9879 127H30.9879C30.9879 143.016 18.0041 156 1.98777 156L1.98778 154Z" fill="white"/>
</svg>
