<svg width="310" height="150" viewBox="0 0 310 150" fill="none" xmlns="http://www.w3.org/2000/svg">
<path d="M30.8945 47.5998V39.9524C30.8945 36.8807 33.3846 34.3906 36.4563 34.3906H74.6933C77.765 34.3906 80.2551 36.8807 80.2551 39.9524V109.474C80.2551 112.546 77.765 115.036 74.6933 115.036H36.4563C33.3846 115.036 30.8945 112.546 30.8945 109.474V103.217M36.4563 44.8189V41.3428H75.3885V98.3508M36.4563 103.217V104.608H75.3885V98.3508M51.7511 110.17H60.0937M42.018 98.3508H75.3885M62.8746 90.7034H59.3985M55.2272 90.7034H49.6654C48.1296 90.7034 46.8846 89.4583 46.8846 87.9225V87.9225C46.8846 86.3867 48.1296 85.1416 49.6654 85.1416H64.9603M70.522 78.8846H49.6654C48.1296 78.8846 46.8846 77.6396 46.8846 76.1038V76.1038C46.8846 74.5679 48.1296 73.3229 49.6654 73.3229H70.522M55.2272 61.5042H49.6654C48.1296 61.5042 46.8846 62.7492 46.8846 64.285V64.285C46.8846 65.8209 48.1296 67.0659 49.6654 67.0659H64.9603M58.7033 61.5042H62.8746M61.4842 47.5998H68.4363V52.4663M16.2949 61.5042V76.1038M16.2949 76.1038H11.4284L9.69033 68.4564M16.2949 76.1038H23.2471M23.2471 60.809H7.95228L9.69033 68.4564M23.2471 60.809V76.1038M23.2471 60.809H29.5041M23.2471 76.1038H29.5041M29.5041 60.809H35.761V68.4564M29.5041 60.809V76.1038M29.5041 76.1038H35.761V68.4564M35.761 68.4564H9.69033M47.5798 47.5998H42.018C38.9463 47.5998 36.4563 50.0899 36.4563 53.1615V55.2472H6.86492C4.20613 55.2472 2.22593 57.7013 2.78782 60.3L7.25707 80.9703H35.761V86.5321H12.8188C10.9649 86.5321 7.25707 87.5054 7.25707 91.3986H36.4563C38.0784 91.3986 41.3228 90.1472 41.3228 85.1416C41.3228 80.136 41.3228 61.7359 41.3228 53.1615H47.5798V47.5998Z" stroke="white" stroke-width="2.78088" stroke-linecap="round" stroke-linejoin="round"/>
<circle cx="10.7332" cy="94.8747" r="3.4761" stroke="white" stroke-width="2.78088"/>
<circle cx="33.6753" cy="94.8747" r="3.4761" stroke="white" stroke-width="2.78088"/>
<circle cx="70.5219" cy="85.1417" r="1.39044" fill="white"/>
<circle cx="70.5219" cy="67.0659" r="1.39044" fill="white"/>
<circle cx="56.6175" cy="47.5998" r="1.39044" fill="white"/>
<path d="M274.056 63.5898V52.4663H225.39V114.341H241.38M235.819 58.7233H238.6M241.38 58.7233H238.6M258.066 58.7233H260.847M263.627 58.7233H260.847M238.6 58.7233V45.5141C238.6 39.3708 243.58 34.3906 249.723 34.3906V34.3906C255.866 34.3906 260.847 39.3708 260.847 45.5141V58.7233M268.494 76.1038H267.104M265.713 76.1038H267.104M288.655 76.1038H287.265M285.874 76.1038H287.265M267.104 76.1038V79.9275C267.104 85.4949 271.617 90.0082 277.184 90.0082V90.0082C282.752 90.0082 287.265 85.4949 287.265 79.9275V76.1038M248.333 69.1516V114.341H306.036V69.1516H248.333Z" stroke="white" stroke-width="2.78088" stroke-linecap="round" stroke-linejoin="round"/>
<path d="M88.5977 63.0866C112.148 58.1664 156.17 54.0896 143.859 77.1444C128.47 105.963 108.184 46.2173 138.962 46.2173C169.741 46.2173 199.12 88.3907 211.711 71.5213C224.302 54.652 213.11 42.7029 230.598 42" stroke="white" stroke-width="3" stroke-linecap="round" stroke-linejoin="round" stroke-dasharray="5.56 5.56"/>
</svg>
