<svg width="316" height="150" viewBox="0 0 316 150" fill="none" xmlns="http://www.w3.org/2000/svg">
<path d="M93 101.454C101.073 115.449 120.2 135.043 132.123 101.454C147.027 59.4666 120.324 48.4175 122.187 66.0961C124.05 83.7748 138.333 121.342 155.721 95.9287C173.11 70.5156 212.854 76.0402 229 105.873" stroke="white" stroke-width="3" stroke-linecap="round" stroke-dasharray="5.56 5.56"/>
<path d="M6.86653 35.5618H14.5139M16.5996 93.9602H7.56175C4.49008 93.9602 2 91.4701 2 88.3984V35.5618C2 32.4901 4.49008 30 7.56176 30H61.0936C64.1653 30 66.6554 32.4901 66.6554 35.5617V44.5996M16.5996 93.9602H61.0936C64.1653 93.9602 66.6554 91.4701 66.6554 88.3984V44.5996M16.5996 93.9602V103.693C16.5996 106.765 19.0897 109.255 22.1614 109.255H75.6932C78.7649 109.255 81.255 106.765 81.255 103.693V50.1614C81.255 47.0897 78.7649 44.5996 75.6932 44.5996H66.6554M27.0279 103.693H75.6932M45.0262 64.9631L26.2606 75.0676C24.4079 76.0652 22.1614 74.7233 22.1614 72.6191V50.9666C22.1614 48.7911 24.5469 47.458 26.3997 48.5982L45.1652 60.1462C46.99 61.2692 46.9127 63.9472 45.0262 64.9631Z" stroke="white" stroke-width="2.78088" stroke-linecap="round" stroke-linejoin="round"/>
<circle cx="22.8565" cy="103.694" r="1.39044" fill="white"/>
<path d="M265.114 58.7195L253.295 63.586M265.114 58.7195L275.542 51.7673M265.114 58.7195C265.152 58.7369 265.191 58.7546 265.231 58.7726M253.295 63.586V90.6995M253.295 63.586L235.914 81.6617L253.295 90.6995M253.295 105.299V90.6995M253.295 110.166V119.899H297.094V91.7424M297.094 63.586L284.58 58.7195M297.094 63.586V91.7424M297.094 63.586L313.779 81.6617L297.094 91.7424M284.58 58.7195C282.494 59.8782 277.766 61.5003 275.542 61.5003C273.351 61.5003 267.832 59.9474 265.231 58.7726M284.58 58.7195L275.542 51.7673M272.066 42.7294C272.066 41.339 272.761 38.5581 275.542 38.5581C278.323 38.5581 279.018 41.339 279.018 42.7294C279.018 43.8881 278.323 46.2055 275.542 46.2055V51.7673M265.231 58.7726C264.728 62.6944 265.114 68.4525 270.675 71.2334C276.237 74.0143 279.018 71.9286 280.408 71.2334M284.58 59.4147C285.043 61.5003 285.414 66.2278 283.189 68.4525" stroke="white" stroke-width="2.78088" stroke-linecap="round" stroke-linejoin="round"/>
<path d="M268.868 81.1664L271.034 84.7059C271.325 85.1805 271.751 85.557 272.257 85.7868L276.037 87.5008L272.497 89.6672C272.023 89.9577 271.646 90.3838 271.416 90.8905L269.702 94.67L267.536 91.1304C267.246 90.6558 266.819 90.2793 266.313 90.0495L262.533 88.3356L266.073 86.1691C266.547 85.8787 266.924 85.4525 267.154 84.9458L268.868 81.1664Z" stroke="white" stroke-width="2.78088"/>
<circle cx="19.4661" cy="35.2805" r="1.39044" fill="white"/>
<path d="M278.683 70.4402L280.329 72.881C280.639 73.341 281.079 73.6977 281.594 73.9053L284.167 74.9437L281.761 76.3257L282.453 77.5315L281.761 76.3257C281.28 76.6019 280.892 77.0157 280.648 77.5139L279.353 80.1576L277.707 77.7167C277.397 77.2568 276.957 76.9001 276.442 76.6925L275.922 77.982L276.442 76.6925L273.868 75.6541L276.275 74.2721L275.583 73.0663L276.275 74.2721C276.756 73.9958 277.144 73.582 277.388 73.0839L278.683 70.4402Z" stroke="white" stroke-width="2.78088"/>
</svg>
