<svg width="375" height="811" viewBox="0 0 375 811" fill="none" xmlns="http://www.w3.org/2000/svg">
<g opacity="0.4">
<path d="M329.331 1C311.016 30.8333 274.385 109.1 274.385 183.5C274.385 276.5 125.825 397 -13.2368 397C-75.6784 397 -190.965 552 -186.895 593.5" stroke="#00BFFF" stroke-width="2"/>
<path d="M581 231.5C535.55 297.333 455.369 447.6 498.241 522C551.831 615 657.654 800.5 464.323 802.5C270.993 804.5 -130.592 839.5 -179.433 888" stroke="#00BFFF" stroke-width="2"/>
<path d="M335.414 6.62207C316.436 37.3335 278.743 117.356 279.789 191.756C281.096 284.756 138.741 406.842 -1.64487 406.89C-67.2789 406.939 -189.548 559.012 -186.769 600.683" stroke="#00BFFF" stroke-width="2"/>
<path d="M341.52 12.2441C321.881 43.8336 283.126 125.612 285.217 200.012C287.831 293.012 151.681 416.683 9.97153 416.781C-58.8549 416.878 -188.107 566.025 -186.618 607.866" stroke="#00BFFF" stroke-width="2"/>
<path d="M347.649 17.8662C327.348 50.3337 287.53 133.869 290.667 208.269C294.589 301.269 164.643 426.525 21.6097 426.671C-50.4091 426.817 -186.644 573.037 -186.446 615.049" stroke="#00BFFF" stroke-width="2"/>
<path d="M353.789 23.4878C332.827 56.8333 291.947 142.124 296.13 216.524C301.358 309.524 177.616 436.366 33.2597 436.561C-41.9515 436.756 -185.17 580.049 -186.262 622.232" stroke="#00BFFF" stroke-width="2"/>
<path d="M359.93 29.1099C338.306 63.3334 296.364 150.381 301.592 224.781C308.127 317.781 190.59 446.207 44.9101 446.451C-33.4936 446.695 -183.695 587.061 -186.077 629.415" stroke="#00BFFF" stroke-width="2"/>
<path d="M366.071 34.7314C343.785 69.8331 300.78 158.636 307.054 233.036C314.897 326.036 203.564 456.049 56.5604 456.341C-25.0357 456.634 -182.22 594.073 -185.893 636.597" stroke="#00BFFF" stroke-width="2"/>
<path d="M372.212 40.3535C349.264 76.3332 305.197 166.893 312.517 241.293C321.666 334.293 216.538 465.89 68.2107 466.232C-16.5778 466.573 -180.745 601.085 -185.708 643.78" stroke="#00BFFF" stroke-width="2"/>
<path d="M378.353 45.9756C354.743 82.8333 309.614 175.149 317.98 249.549C328.436 342.549 229.513 475.732 79.8613 476.122C-8.11955 476.512 -179.269 608.098 -185.523 650.963" stroke="#00BFFF" stroke-width="2"/>
<path d="M384.494 51.5977C360.222 89.3334 314.031 183.405 323.442 257.805C335.206 350.805 242.486 485.573 91.5116 486.012C0.338288 486.451 -177.794 615.11 -185.339 658.146" stroke="#00BFFF" stroke-width="2"/>
<path d="M390.634 57.2197C365.701 95.8335 318.448 191.661 328.904 266.061C341.975 359.061 255.46 495.415 103.162 495.903C8.7962 496.39 -176.319 622.122 -185.154 665.329" stroke="#00BFFF" stroke-width="2"/>
<path d="M396.775 62.8418C371.18 102.334 322.865 199.917 334.367 274.317C348.745 367.317 268.434 505.256 114.812 505.793C17.2541 506.33 -174.844 629.134 -184.97 672.513" stroke="#00BFFF" stroke-width="2"/>
<path d="M402.916 68.4634C376.659 108.833 327.281 208.173 339.829 282.573C355.514 375.573 281.408 515.098 126.463 515.683C25.712 516.268 -173.369 636.146 -184.785 679.695" stroke="#00BFFF" stroke-width="2"/>
<path d="M409.057 74.0854C382.138 115.333 331.698 216.429 345.292 290.829C362.284 383.829 294.382 524.939 138.113 525.573C34.1702 526.207 -171.894 643.159 -184.601 686.878" stroke="#00BFFF" stroke-width="2"/>
<path d="M415.198 79.707C387.617 121.833 336.115 224.685 350.754 299.085C369.053 392.085 307.356 534.78 149.763 535.463C42.6281 536.146 -170.419 650.17 -184.416 694.061" stroke="#00BFFF" stroke-width="2"/>
<path d="M421.339 85.3291C393.096 128.333 340.532 232.941 356.217 307.341C375.823 400.341 320.33 544.622 161.414 545.353C51.086 546.085 -168.944 657.183 -184.232 701.244" stroke="#00BFFF" stroke-width="2"/>
<path d="M427.479 90.9512C398.575 134.833 344.949 241.198 361.679 315.598C382.592 408.598 333.304 554.463 173.064 555.244C59.5439 556.024 -167.469 664.195 -184.047 708.427" stroke="#00BFFF" stroke-width="2"/>
<path d="M433.62 96.5732C404.054 141.333 349.365 249.454 367.142 323.854C389.362 416.854 346.278 564.305 184.714 565.134C68.0018 565.963 -165.994 671.207 -183.863 715.61" stroke="#00BFFF" stroke-width="2"/>
<path d="M439.761 102.195C409.533 147.834 353.782 257.71 372.604 332.11C396.132 425.11 359.252 574.147 196.365 575.025C76.46 575.903 -164.518 678.22 -183.678 722.793" stroke="#00BFFF" stroke-width="2"/>
<path d="M445.902 107.817C415.012 154.334 358.199 265.966 378.067 340.366C402.901 433.366 372.226 583.988 208.015 584.915C84.9179 585.842 -163.043 685.232 -183.493 729.976" stroke="#00BFFF" stroke-width="2"/>
<path d="M452.043 113.439C420.491 160.833 362.616 274.222 383.529 348.622C409.67 441.622 385.2 593.829 219.666 594.805C93.3758 595.78 -161.568 692.244 -183.309 737.158" stroke="#00BFFF" stroke-width="2"/>
<path d="M458.183 119.061C425.97 167.333 367.033 282.478 388.992 356.878C416.44 449.878 398.174 603.671 231.316 604.695C101.834 605.72 -160.093 699.256 -183.124 744.342" stroke="#00BFFF" stroke-width="2"/>
<path d="M464.324 124.683C431.449 173.833 371.45 290.734 394.454 365.134C423.209 458.134 411.148 613.512 242.966 614.585C110.292 615.658 -158.618 706.268 -182.94 751.524" stroke="#00BFFF" stroke-width="2"/>
<path d="M470.465 130.305C436.928 180.333 375.866 298.99 399.916 373.39C429.979 466.39 424.122 623.353 254.617 624.475C118.75 625.597 -157.143 713.28 -182.755 758.707" stroke="#00BFFF" stroke-width="2"/>
<path d="M476.606 135.927C442.407 186.833 380.283 307.246 405.379 381.646C436.749 474.646 437.096 633.195 266.267 634.366C127.208 635.537 -155.668 720.293 -182.57 765.89" stroke="#00BFFF" stroke-width="2"/>
<path d="M482.747 141.549C447.886 193.333 384.7 315.502 410.842 389.902C443.518 482.902 450.07 643.037 277.917 644.256C135.666 645.476 -154.193 727.305 -182.386 773.073" stroke="#00BFFF" stroke-width="2"/>
<path d="M488.888 147.171C453.365 199.834 389.117 323.759 416.304 398.159C450.288 491.159 463.044 652.878 289.568 654.147C144.123 655.415 -152.718 734.317 -182.202 780.256" stroke="#00BFFF" stroke-width="2"/>
<path d="M495.028 152.793C458.844 206.334 393.534 332.015 421.766 406.415C457.057 499.415 476.018 662.72 301.218 664.037C152.581 665.354 -151.243 741.33 -182.017 787.439" stroke="#00BFFF" stroke-width="2"/>
<path d="M501.169 158.415C464.323 212.833 397.95 340.271 427.229 414.671C463.827 507.671 488.992 672.561 312.868 673.927C161.039 675.293 -149.768 748.341 -181.833 794.622" stroke="#00BFFF" stroke-width="2"/>
<path d="M507.31 164.037C469.802 219.333 402.367 348.527 432.691 422.927C470.596 515.927 501.966 682.403 324.519 683.817C169.497 685.232 -148.293 755.354 -181.648 801.805" stroke="#00BFFF" stroke-width="2"/>
<path d="M513.451 169.658C475.281 225.833 406.784 356.783 438.154 431.183C477.366 524.183 514.94 692.244 336.169 693.707C177.955 695.17 -146.818 762.366 -181.463 808.987" stroke="#00BFFF" stroke-width="2"/>
<path d="M519.592 175.28C480.76 232.333 411.201 365.039 443.616 439.439C484.135 532.439 527.914 702.085 347.82 703.597C186.413 705.11 -145.343 769.378 -181.279 816.171" stroke="#00BFFF" stroke-width="2"/>
<path d="M525.733 180.902C486.239 238.833 415.618 373.295 449.079 447.695C490.905 540.695 540.888 711.927 359.47 713.488C194.871 715.049 -143.868 776.39 -181.094 823.354" stroke="#00BFFF" stroke-width="2"/>
<path d="M531.873 186.524C491.718 245.333 420.034 381.551 454.541 455.951C497.674 548.951 553.862 721.768 371.12 723.378C203.329 724.988 -142.393 783.402 -180.91 830.537" stroke="#00BFFF" stroke-width="2"/>
<path d="M538.014 192.146C497.197 251.833 424.452 389.807 460.004 464.207C504.444 557.207 566.836 731.61 382.771 733.268C211.787 734.927 -140.917 790.415 -180.725 837.72" stroke="#00BFFF" stroke-width="2"/>
<path d="M544.155 197.769C502.676 258.334 428.868 398.064 465.466 472.464C511.214 565.464 579.81 741.451 394.421 743.159C220.245 744.866 -139.442 797.427 -180.54 844.903" stroke="#00BFFF" stroke-width="2"/>
<path d="M550.296 203.39C508.155 264.833 433.285 406.319 470.929 480.719C517.983 573.719 592.784 751.293 406.071 753.049C228.703 754.805 -137.967 804.439 -180.356 852.085" stroke="#00BFFF" stroke-width="2"/>
<path d="M556.437 209.012C513.634 271.333 437.702 414.576 476.391 488.976C524.753 581.976 605.758 761.134 417.722 762.939C237.161 764.744 -136.492 811.451 -180.171 859.268" stroke="#00BFFF" stroke-width="2"/>
<path d="M562.577 214.634C519.113 277.833 442.118 422.831 481.853 497.231C531.522 590.231 618.732 770.975 429.372 772.829C245.619 774.683 -135.017 818.463 -179.987 866.451" stroke="#00BFFF" stroke-width="2"/>
<path d="M568.718 220.256C524.592 284.333 446.536 431.088 487.316 505.488C538.292 598.488 631.706 780.817 441.023 782.719C254.077 784.622 -133.542 825.475 -179.802 873.634" stroke="#00BFFF" stroke-width="2"/>
<path d="M574.859 225.878C530.071 290.833 450.952 439.344 492.779 513.744C545.061 606.744 644.68 790.658 452.673 792.61C262.535 794.561 -132.067 832.488 -179.618 880.817" stroke="#00BFFF" stroke-width="2"/>
<path d="M-185 888V393L427 888H-185Z" fill="url(#paint0_linear_1_650)"/>
<path d="M604 6.10352e-05L604 577L-111 1.49623e-05L604 6.10352e-05Z" fill="url(#paint1_linear_1_650)"/>
</g>
<defs>
<linearGradient id="paint0_linear_1_650" x1="-172.809" y1="884.4" x2="45.8776" y2="585.661" gradientUnits="userSpaceOnUse">
<stop/>
<stop offset="1" stop-opacity="0"/>
</linearGradient>
<linearGradient id="paint1_linear_1_650" x1="589.757" y1="4.19643" x2="365.514" y2="357.548" gradientUnits="userSpaceOnUse">
<stop/>
<stop offset="1" stop-opacity="0"/>
</linearGradient>
</defs>
</svg>
